<svg width="48" height="48" viewBox="0 0 48 48" fill="none" xmlns="http://www.w3.org/2000/svg">
<path d="M40.65 45.2L34.05 38.6C33.1167 39.2666 32.1083 39.8416 31.025 40.325C29.9417 40.8083 28.8167 41.1833 27.65 41.45V38.35C28.4167 38.1166 29.1583 37.8583 29.875 37.575C30.5917 37.2916 31.2667 36.9166 31.9 36.45L23.65 28.15V40L13.65 30H5.65001V18H13.45L2.45001 6.99998L4.60001 4.84998L42.8 43L40.65 45.2ZM38.85 33.6L36.7 31.45C37.3667 30.3166 37.8583 29.1166 38.175 27.85C38.4917 26.5833 38.65 25.2833 38.65 23.95C38.65 20.5166 37.65 17.4416 35.65 14.725C33.65 12.0083 30.9833 10.2833 27.65 9.54998V6.44998C31.7833 7.38331 35.15 9.47498 37.75 12.725C40.35 15.975 41.65 19.7166 41.65 23.95C41.65 25.65 41.4167 27.3166 40.95 28.95C40.4833 30.5833 39.7833 32.1333 38.85 33.6ZM32.15 26.9L27.65 22.4V15.9C29.2167 16.6333 30.4417 17.7333 31.325 19.2C32.2083 20.6666 32.65 22.2666 32.65 24C32.65 24.5 32.6083 24.9916 32.525 25.475C32.4417 25.9583 32.3167 26.4333 32.15 26.9ZM23.65 18.4L18.45 13.2L23.65 7.99998V18.4ZM20.65 32.7V25.2L16.45 21H8.65001V27H14.95L20.65 32.7Z" fill="white"/>
</svg>
